HIERARCHY
ROOT Hips
{
	OFFSET 0.000000 0.000000 0.000000
	CHANNELS 6 Xposition Yposition Zposition Yrotation Xrotation Zrotation
	JOINT Chest
	{
		OFFSET 0.000000 -0.009282 11.569106
		CHANNELS 6 Xposition Yposition Zposition Yrotation Xrotation Zrotation
		JOINT Chest2
		{
			OFFSET -0.000000 0.016863 9.269641
			CHANNELS 6 Xposition Yposition Zposition Yrotation Xrotation Zrotation
			JOINT Chest3
			{
				OFFSET -0.000000 0.000000 8.374491
				CHANNELS 6 Xposition Yposition Zposition Yrotation Xrotation Zrotation
				JOINT Chest4
				{
					OFFSET -0.000000 0.000000 8.374493
					CHANNELS 6 Xposition Yposition Zposition Yrotation Xrotation Zrotation
					JOINT Neck
					{
						OFFSET -0.000000 0.000001 12.152554
						CHANNELS 6 Xposition Yposition Zposition Yrotation Xrotation Zrotation
						JOINT Head
						{
							OFFSET -0.000000 0.040100 7.802319
							CHANNELS 6 Xposition Yposition Zposition Yrotation Xrotation Zrotation
							End Site
							{
								OFFSET -0.000000 0.020946 14.853096
							}
						}
					}
					JOINT RightCollar
					{
						OFFSET 2.894404 0.000001 6.791374
						CHANNELS 6 Xposition Yposition Zposition Yrotation Xrotation Zrotation
						JOINT RightShoulder
						{
							OFFSET 13.574684 0.000001 0.000000
							CHANNELS 6 Xposition Yposition Zposition Yrotation Xrotation Zrotation
							JOINT RightElbow
							{
								OFFSET 23.923903 0.000002 0.000000
								CHANNELS 6 Xposition Yposition Zposition Yrotation Xrotation Zrotation
								JOINT RightWrist
								{
									OFFSET 19.846718 0.012767 0.000000
									CHANNELS 6 Xposition Yposition Zposition Yrotation Xrotation Zrotation
									End Site
									{
										OFFSET 14.973145 0.000001 0.000000
									}
								}
							}
						}
					}
					JOINT LeftCollar
					{
						OFFSET -2.894404 0.000000 6.791374
						CHANNELS 6 Xposition Yposition Zposition Yrotation Xrotation Zrotation
						JOINT LeftShoulder
						{
							OFFSET -13.574684 -0.000001 0.000000
							CHANNELS 6 Xposition Yposition Zposition Yrotation Xrotation Zrotation
							JOINT LeftElbow
							{
								OFFSET -23.923903 -0.000002 0.000000
								CHANNELS 6 Xposition Yposition Zposition Yrotation Xrotation Zrotation
								JOINT LeftWrist
								{
									OFFSET -19.846718 0.012763 0.000000
									CHANNELS 6 Xposition Yposition Zposition Yrotation Xrotation Zrotation
									End Site
									{
										OFFSET -14.973145 -0.000001 0.000000
									}
								}
							}
						}
					}
				}
			}
		}
	}
	JOINT RightHip
	{
		OFFSET 9.469263 0.004643 0.045487
		CHANNELS 6 Xposition Yposition Zposition Yrotation Xrotation Zrotation
		JOINT RightKnee
		{
			OFFSET 0.000000 0.002666 -40.478676
			CHANNELS 6 Xposition Yposition Zposition Yrotation Xrotation Zrotation
			JOINT RightAnkle
			{
				OFFSET 0.000000 0.049110 -35.224068
				CHANNELS 6 Xposition Yposition Zposition Yrotation Xrotation Zrotation
				JOINT RightToe
				{
					OFFSET -0.000001 12.539530 -6.151390
					CHANNELS 6 Xposition Yposition Zposition Yrotation Xrotation Zrotation
					End Site
					{
						OFFSET -0.000001 5.044996 -1.291870
					}
				}
			}
		}
	}
	JOINT LeftHip
	{
		OFFSET -9.469263 0.004641 0.045487
		CHANNELS 6 Xposition Yposition Zposition Yrotation Xrotation Zrotation
		JOINT LeftKnee
		{
			OFFSET 0.000000 0.002666 -40.478676
			CHANNELS 6 Xposition Yposition Zposition Yrotation Xrotation Zrotation
			JOINT LeftAnkle
			{
				OFFSET 0.000000 0.049110 -35.224068
				CHANNELS 6 Xposition Yposition Zposition Yrotation Xrotation Zrotation
				JOINT LeftToe
				{
					OFFSET -0.000001 12.539530 -6.151390
					CHANNELS 6 Xposition Yposition Zposition Yrotation Xrotation Zrotation
					End Site
					{
						OFFSET -0.000001 5.044996 -1.291870
					}
				}
			}
		}
	}
}
MOTION
Frames: 5
Frame Time: 0.016667
5.156055 5.394354 83.054893 -10.161914 -2.539475 -103.089691 0.000000 -0.009282 11.569106 -0.155617 -2.079191 0.916158 0.000000 0.016863 9.269640 -0.072110 -0.900651 0.323462 0.000000 -0.000000 8.374490 -0.072110 -0.900651 0.323463 0.000000 -0.000001 8.374495 -0.053605 -0.675527 0.242486 0.000001 -0.000001 12.152554 4.273404 -17.033742 -9.318076 -0.000000 0.040103 7.802286 4.674153 4.534271 -15.752756 2.894405 -0.000001 6.791376 4.277129 -0.959074 -9.836919 13.574684 0.000001 -0.000006 56.355853 4.147452 40.882302 23.923914 -0.000014 -0.000000 53.754364 -12.168128 40.369300 19.846720 0.012754 -0.000006 28.269340 19.724012 -56.761157 -2.894403 -0.000001 6.791381 -6.458661 -0.929680 -5.215222 -13.574681 -0.000002 0.000007 -62.115393 -10.525310 -41.165752 -23.923908 -0.000003 0.000005 -47.037583 2.184614 -59.960366 -19.846722 0.012747 0.000004 -54.801586 45.314388 29.156906 9.469263 0.004644 0.045490 1.433188 -13.663510 -10.441583 0.000149 0.002656 -40.478493 -4.278242 3.599403 -3.463218 0.000016 0.049107 -35.224056 5.209391 0.492031 -0.318237 -0.000003 12.539524 -6.151391 0.022676 0.029887 0.044289 -9.469261 0.004642 0.045487 0.275501 -13.728162 -24.190338 -0.000832 0.002521 -40.478424 -0.564307 5.697025 18.098789 -0.000910 0.048951 -35.224094 0.370200 -0.695753 19.917723 -0.000000 12.539532 -6.151394 -0.010174 -0.087449 -0.009387 
5.163954 5.389936 83.054695 -10.165499 -2.525281 -103.070936 0.000001 -0.009282 11.569104 -0.174131 -2.064426 0.936760 0.000000 0.016863 9.269626 -0.073982 -0.896748 0.338351 0.000000 0.000000 8.374498 -0.073982 -0.896749 0.338352 -0.000001 0.000001 8.374492 -0.054988 -0.672602 0.253651 -0.000000 -0.000002 12.152574 4.311545 -17.019426 -9.362197 -0.000000 0.040102 7.802305 4.728099 4.562265 -15.821513 2.894404 -0.000002 6.791383 4.251785 -0.950661 -9.795939 13.574680 0.000002 0.000011 56.113224 4.497961 41.786267 23.923906 0.000005 -0.000003 50.963060 -13.487605 41.099034 19.846720 0.012761 -0.000000 27.584795 18.183632 -57.494552 -2.894404 -0.000002 6.791383 -6.448303 -0.948542 -5.226811 -13.574684 -0.000003 0.000003 -61.756405 -10.409948 -41.429612 -23.923903 -0.000018 -0.000007 -46.028061 1.020925 -59.999032 -19.846724 0.012765 -0.000004 -53.374595 43.555194 32.594400 9.469264 0.004644 0.045480 1.427261 -13.679208 -10.470624 0.000148 0.002656 -40.478497 -4.274879 3.614071 -3.452990 0.000016 0.049106 -35.224045 5.204781 0.501356 -0.324179 -0.000004 12.539525 -6.151389 0.023410 0.022330 0.047941 -9.469263 0.004643 0.045490 0.270639 -13.734095 -24.218667 -0.000832 0.002521 -40.478439 -0.568098 5.694896 18.118550 -0.000907 0.048955 -35.224094 0.380146 -0.697482 19.818062 0.000000 12.539536 -6.151398 -0.023186 -0.081449 -0.035814 
5.173218 5.378147 83.054367 -10.163832 -2.528034 -103.058723 0.000000 -0.009281 11.569113 -0.180826 -2.045635 0.970997 -0.000000 0.016862 9.269640 -0.078196 -0.887333 0.351028 0.000000 -0.000002 8.374488 -0.078196 -0.887333 0.351029 0.000000 -0.000000 8.374493 -0.058136 -0.665545 0.263153 0.000000 0.000002 12.152555 4.351353 -17.015973 -9.404993 -0.000000 0.040104 7.802292 4.786567 4.570421 -15.886887 2.894403 -0.000001 6.791365 4.233917 -0.943955 -9.778553 13.574686 0.000002 -0.000003 55.983055 4.893045 42.639341 23.923918 -0.000007 -0.000009 48.452194 -14.872614 41.890756 19.846722 0.012765 0.000002 26.991021 16.875803 -58.148016 -2.894404 -0.000000 6.791360 -6.434603 -0.963371 -5.230440 -13.574686 -0.000003 -0.000006 -61.379741 -10.262848 -41.703909 -23.923904 -0.000001 -0.000001 -45.244959 -0.213783 -59.992482 -19.846720 0.012760 -0.000005 -51.658343 41.173087 35.881272 9.469265 0.004644 0.045500 1.435662 -13.695538 -10.487609 0.000146 0.002656 -40.478497 -4.262372 3.629664 -3.439338 0.000017 0.049107 -35.224037 5.195063 0.504771 -0.327752 -0.000003 12.539528 -6.151393 0.022135 0.021800 0.047268 -9.469263 0.004642 0.045497 0.279621 -13.738450 -24.223128 -0.000832 0.002520 -40.478428 -0.570974 5.695522 18.128396 -0.000903 0.048953 -35.224098 0.380646 -0.688518 19.782970 0.000001 12.539534 -6.151397 -0.021188 -0.083892 -0.032028 
5.177375 5.377713 83.054230 -10.146856 -2.509762 -103.017387 -0.000000 -0.009282 11.569104 -0.203918 -2.010790 0.989395 0.000000 0.016866 9.269628 -0.084055 -0.876136 0.363948 0.000000 -0.000001 8.374483 -0.084054 -0.876135 0.363948 -0.000000 -0.000000 8.374490 -0.062518 -0.657151 0.272835 -0.000001 -0.000001 12.152545 4.392711 -17.020920 -9.450485 -0.000002 0.040098 7.802285 4.847755 4.563047 -15.956430 2.894403 -0.000000 6.791375 4.215333 -0.950687 -9.788392 13.574681 0.000001 0.000008 55.965044 5.306316 43.457550 23.923904 -0.000009 0.000003 46.210611 -16.267940 42.832680 19.846718 0.012770 0.000006 26.442642 15.594428 -58.799336 -2.894404 -0.000001 6.791366 -6.402726 -1.007071 -5.252066 -13.574686 -0.000003 0.000004 -60.958243 -10.165158 -41.961117 -23.923903 0.000013 -0.000008 -44.486846 -1.525973 -60.102543 -19.846722 0.012769 -0.000001 -49.397123 38.615649 39.161515 9.469264 0.004644 0.045486 1.431456 -13.691276 -10.527098 0.000148 0.002656 -40.478489 -4.252239 3.647970 -3.436568 0.000018 0.049108 -35.224056 5.185618 0.507920 -0.344440 -0.000003 12.539526 -6.151395 0.025053 0.016932 0.055434 -9.469263 0.004641 0.045486 0.288532 -13.724765 -24.233846 -0.000834 0.002521 -40.478432 -0.578506 5.701513 18.122847 -0.000891 0.048954 -35.224094 0.381555 -0.698964 19.584944 0.000001 12.539533 -6.151400 -0.031662 -0.076753 -0.055800 
5.189029 5.356995 83.056152 -10.141699 -2.522601 -102.998693 -0.000001 -0.009283 11.569108 -0.194676 -2.005382 1.020353 0.000000 0.016865 9.269632 -0.087789 -0.868475 0.369067 -0.000000 0.000001 8.374496 -0.087788 -0.868474 0.369066 0.000000 -0.000001 8.374502 -0.065316 -0.651410 0.276671 0.000000 -0.000000 12.152563 4.424664 -17.024730 -9.482860 -0.000001 0.040098 7.802311 4.895973 4.557526 -16.005018 2.894404 0.000000 6.791384 4.187076 -0.973685 -9.790163 13.574679 -0.000001 -0.000002 56.028431 5.717030 44.250323 23.923895 0.000017 0.000002 43.905259 -17.887586 44.070870 19.846720 0.012766 -0.000001 25.893937 14.214606 -59.379308 -2.894404 -0.000001 6.791382 -6.369949 -1.065252 -5.262140 -13.574687 -0.000003 0.000010 -60.544334 -10.100464 -42.207014 -23.923897 -0.000013 0.000006 -43.477354 -2.924575 -60.311848 -19.846722 0.012759 0.000002 -47.086989 35.842975 42.077189 9.469262 0.004641 0.045488 1.461601 -13.713931 -10.539810 0.000147 0.002656 -40.478493 -4.248683 3.674762 -3.428060 0.000018 0.049108 -35.224052 5.178217 0.496493 -0.356008 -0.000003 12.539526 -6.151398 0.022158 0.028486 0.051612 -9.469262 0.004641 0.045488 0.313035 -13.731516 -24.196630 -0.000833 0.002522 -40.478436 -0.583956 5.712686 18.103189 -0.000895 0.048954 -35.224102 0.367917 -0.688738 19.617999 0.000002 12.539534 -6.151386 -0.014998 -0.081414 -0.025441 
